<?xml version="1.0" encoding="UTF-8" standalone="no"?>
<!DOCTYPE svg PUBLIC "-//W3C//DTD SVG 1.1//EN"
 "http://www.w3.org/Graphics/SVG/1.1/DTD/svg11.dtd">
<!-- Generated by graphviz version 2.28.0 (20121014.0429)
 -->
<!-- Title: controllers_diagram Pages: 1 -->
<svg width="479pt" height="270pt"
 viewBox="0.00 0.00 478.97 270.00" xmlns="http://www.w3.org/2000/svg" xmlns:xlink="http://www.w3.org/1999/xlink">
<g id="graph1" class="graph" transform="scale(1 1) rotate(0) translate(4 266)">
<title>controllers_diagram</title>
<polygon fill="white" stroke="white" points="-4,5 -4,-266 475.967,-266 475.967,5 -4,5"/>
<!-- _diagram_info -->
<g id="node1" class="node"><title>_diagram_info</title>
<text text-anchor="start" x="271.591" y="-245" font-family="Times,serif" font-size="13.00">Controllers diagram</text>
<text text-anchor="start" x="271.591" y="-229.4" font-family="Times,serif" font-size="13.00">Date: Oct 14 2012 &#45; 03:44</text>
<text text-anchor="start" x="271.591" y="-213.8" font-family="Times,serif" font-size="13.00">Migration version: 20121014040558</text>
<text text-anchor="start" x="271.591" y="-198.2" font-family="Times,serif" font-size="13.00">Generated by RailRoady 1.1.0</text>
<text text-anchor="start" x="271.591" y="-182.6" font-family="Times,serif" font-size="13.00">http://railroady.prestonlee.com</text>
</g>
<!-- ApplicationController -->
<g id="node2" class="node"><title>ApplicationController</title>
<polyline fill="none" stroke="black" points="11.5913,-33.5736 183.226,-33.5736 "/>
<path fill="none" stroke="black" d="M183.226,-33.5736C189.226,-33.5736 195.226,-39.5736 195.226,-45.5736"/>
<polyline fill="none" stroke="black" points="195.226,-45.5736 195.226,-136.774 "/>
<path fill="none" stroke="black" d="M195.226,-136.774C195.226,-142.774 189.226,-148.774 183.226,-148.774"/>
<polyline fill="none" stroke="black" points="183.226,-148.774 11.5913,-148.774 "/>
<path fill="none" stroke="black" d="M11.5913,-148.774C5.59131,-148.774 -0.408691,-142.774 -0.408691,-136.774"/>
<polyline fill="none" stroke="black" points="-0.408691,-136.774 -0.408691,-45.5736 "/>
<path fill="none" stroke="black" d="M-0.408691,-45.5736C-0.408691,-39.5736 5.59131,-33.5736 11.5913,-33.5736"/>
<text text-anchor="middle" x="97.4087" y="-130.774" font-family="Times,serif" font-size="14.00">ApplicationController</text>
<polyline fill="none" stroke="black" points="-0.408691,-123.974 195.226,-123.974 "/>
<text text-anchor="start" x="7.59131" y="-105.974" font-family="Times,serif" font-size="14.00">_one_time_conditions_valid_8?</text>
<polyline fill="none" stroke="black" points="-0.408691,-99.1736 195.226,-99.1736 "/>
<polyline fill="none" stroke="black" points="-0.408691,-75.1736 195.226,-75.1736 "/>
<text text-anchor="start" x="7.59131" y="-57.1736" font-family="Times,serif" font-size="14.00">_layout</text>
<text text-anchor="start" x="7.59131" y="-40.3736" font-family="Times,serif" font-size="14.00">_run_process_action_callbacks</text>
</g>
<!-- SurveysController -->
<g id="node3" class="node"><title>SurveysController</title>
<polyline fill="none" stroke="black" points="215.226,-0.5 309.881,-0.5 "/>
<path fill="none" stroke="black" d="M309.881,-0.5C315.881,-0.5 321.881,-6.5 321.881,-12.5"/>
<polyline fill="none" stroke="black" points="321.881,-12.5 321.881,-120.5 "/>
<path fill="none" stroke="black" d="M321.881,-120.5C321.881,-126.5 315.881,-132.5 309.881,-132.5"/>
<polyline fill="none" stroke="black" points="309.881,-132.5 215.226,-132.5 "/>
<path fill="none" stroke="black" d="M215.226,-132.5C209.226,-132.5 203.226,-126.5 203.226,-120.5"/>
<polyline fill="none" stroke="black" points="203.226,-120.5 203.226,-12.5 "/>
<path fill="none" stroke="black" d="M203.226,-12.5C203.226,-6.5 209.226,-0.5 215.226,-0.5"/>
<text text-anchor="middle" x="262.554" y="-114.5" font-family="Times,serif" font-size="14.00">SurveysController</text>
<polyline fill="none" stroke="black" points="203.226,-107.7 321.881,-107.7 "/>
<text text-anchor="start" x="211.226" y="-89.7" font-family="Times,serif" font-size="14.00">add</text>
<text text-anchor="start" x="211.226" y="-72.9" font-family="Times,serif" font-size="14.00">delete</text>
<text text-anchor="start" x="211.226" y="-56.1" font-family="Times,serif" font-size="14.00">edit</text>
<polyline fill="none" stroke="black" points="203.226,-49.3 321.881,-49.3 "/>
<polyline fill="none" stroke="black" points="203.226,-25.3 321.881,-25.3 "/>
<text text-anchor="start" x="211.226" y="-7.3" font-family="Times,serif" font-size="14.00">_layout</text>
</g>
<!-- ApplicationController&#45;&gt;SurveysController -->
<g id="edge2" class="edge"><title>ApplicationController&#45;&gt;SurveysController</title>
<path fill="none" stroke="black" d="M195.383,-76.5357C198.022,-76.1414 200.64,-75.7503 203.224,-75.3642"/>
</g>
</g>
</svg>
