<?xml version="1.0" encoding="UTF-8" standalone="no"?>
<!DOCTYPE svg PUBLIC "-//W3C//DTD SVG 1.1//EN"
 "http://www.w3.org/Graphics/SVG/1.1/DTD/svg11.dtd">
<!-- Generated by graphviz version 2.28.0 (20121014.0429)
 -->
<!-- Title: controllers_diagram Pages: 1 -->
<svg width="732pt" height="658pt"
 viewBox="0.00 0.00 732.14 658.00" xmlns="http://www.w3.org/2000/svg" xmlns:xlink="http://www.w3.org/1999/xlink">
<g id="graph1" class="graph" transform="scale(1 1) rotate(0) translate(4 654)">
<title>controllers_diagram</title>
<polygon fill="white" stroke="white" points="-4,5 -4,-654 729.141,-654 729.141,5 -4,5"/>
<!-- _diagram_info -->
<g id="node1" class="node"><title>_diagram_info</title>
<text text-anchor="start" x="524.765" y="-633" font-family="Times,serif" font-size="13.00">Controllers diagram</text>
<text text-anchor="start" x="524.765" y="-617.4" font-family="Times,serif" font-size="13.00">Date: Oct 27 2012 &#45; 14:58</text>
<text text-anchor="start" x="524.765" y="-601.8" font-family="Times,serif" font-size="13.00">Migration version: 20121021223404</text>
<text text-anchor="start" x="524.765" y="-586.2" font-family="Times,serif" font-size="13.00">Generated by RailRoady 1.1.0</text>
<text text-anchor="start" x="524.765" y="-570.6" font-family="Times,serif" font-size="13.00">http://railroady.prestonlee.com</text>
</g>
<!-- ApplicationController -->
<g id="node2" class="node"><title>ApplicationController</title>
<polyline fill="none" stroke="black" points="210.704,-243.9 389.339,-243.9 "/>
<path fill="none" stroke="black" d="M389.339,-243.9C395.339,-243.9 401.339,-249.9 401.339,-255.9"/>
<polyline fill="none" stroke="black" points="401.339,-255.9 401.339,-364.7 "/>
<path fill="none" stroke="black" d="M401.339,-364.7C401.339,-370.7 395.339,-376.7 389.339,-376.7"/>
<polyline fill="none" stroke="black" points="389.339,-376.7 210.704,-376.7 "/>
<path fill="none" stroke="black" d="M210.704,-376.7C204.704,-376.7 198.704,-370.7 198.704,-364.7"/>
<polyline fill="none" stroke="black" points="198.704,-364.7 198.704,-255.9 "/>
<path fill="none" stroke="black" d="M198.704,-255.9C198.704,-249.9 204.704,-243.9 210.704,-243.9"/>
<text text-anchor="middle" x="300.021" y="-358.7" font-family="Times,serif" font-size="14.00">ApplicationController</text>
<polyline fill="none" stroke="black" points="198.704,-351.9 401.339,-351.9 "/>
<text text-anchor="start" x="206.704" y="-333.9" font-family="Times,serif" font-size="14.00">_one_time_conditions_valid_10?</text>
<text text-anchor="start" x="206.704" y="-317.1" font-family="Times,serif" font-size="14.00">_one_time_conditions_valid_8?</text>
<polyline fill="none" stroke="black" points="198.704,-310.3 401.339,-310.3 "/>
<text text-anchor="start" x="206.704" y="-292.3" font-family="Times,serif" font-size="14.00">current_user</text>
<polyline fill="none" stroke="black" points="198.704,-285.5 401.339,-285.5 "/>
<text text-anchor="start" x="206.704" y="-267.5" font-family="Times,serif" font-size="14.00">_layout</text>
<text text-anchor="start" x="206.704" y="-250.7" font-family="Times,serif" font-size="14.00">_run_process_action_callbacks</text>
</g>
<!-- HomeController -->
<g id="node3" class="node"><title>HomeController</title>
<polyline fill="none" stroke="black" points="461.819,-143.091 545.577,-143.091 "/>
<path fill="none" stroke="black" d="M545.577,-143.091C551.577,-143.091 557.577,-149.091 557.577,-155.091"/>
<polyline fill="none" stroke="black" points="557.577,-155.091 557.577,-228.691 "/>
<path fill="none" stroke="black" d="M557.577,-228.691C557.577,-234.691 551.577,-240.691 545.577,-240.691"/>
<polyline fill="none" stroke="black" points="545.577,-240.691 461.819,-240.691 "/>
<path fill="none" stroke="black" d="M461.819,-240.691C455.819,-240.691 449.819,-234.691 449.819,-228.691"/>
<polyline fill="none" stroke="black" points="449.819,-228.691 449.819,-155.091 "/>
<path fill="none" stroke="black" d="M449.819,-155.091C449.819,-149.091 455.819,-143.091 461.819,-143.091"/>
<text text-anchor="middle" x="503.698" y="-222.691" font-family="Times,serif" font-size="14.00">HomeController</text>
<polyline fill="none" stroke="black" points="449.819,-215.891 557.577,-215.891 "/>
<polyline fill="none" stroke="black" points="449.819,-191.891 557.577,-191.891 "/>
<polyline fill="none" stroke="black" points="449.819,-167.891 557.577,-167.891 "/>
<text text-anchor="start" x="457.819" y="-149.891" font-family="Times,serif" font-size="14.00">_layout</text>
</g>
<!-- ApplicationController&#45;&gt;HomeController -->
<g id="edge2" class="edge"><title>ApplicationController&#45;&gt;HomeController</title>
<path fill="none" stroke="black" d="M401.561,-251.269C418.202,-241.595 434.853,-231.914 449.738,-223.261"/>
</g>
<!-- PostsurveysController -->
<g id="node4" class="node"><title>PostsurveysController</title>
<polyline fill="none" stroke="black" points="241.328,-0.5 357.77,-0.5 "/>
<path fill="none" stroke="black" d="M357.77,-0.5C363.77,-0.5 369.77,-6.5 369.77,-12.5"/>
<polyline fill="none" stroke="black" points="369.77,-12.5 369.77,-137.3 "/>
<path fill="none" stroke="black" d="M369.77,-137.3C369.77,-143.3 363.77,-149.3 357.77,-149.3"/>
<polyline fill="none" stroke="black" points="357.77,-149.3 241.328,-149.3 "/>
<path fill="none" stroke="black" d="M241.328,-149.3C235.328,-149.3 229.328,-143.3 229.328,-137.3"/>
<polyline fill="none" stroke="black" points="229.328,-137.3 229.328,-12.5 "/>
<path fill="none" stroke="black" d="M229.328,-12.5C229.328,-6.5 235.328,-0.5 241.328,-0.5"/>
<text text-anchor="middle" x="299.549" y="-131.3" font-family="Times,serif" font-size="14.00">PostsurveysController</text>
<polyline fill="none" stroke="black" points="229.328,-124.5 369.77,-124.5 "/>
<text text-anchor="start" x="237.328" y="-106.5" font-family="Times,serif" font-size="14.00">create</text>
<text text-anchor="start" x="237.328" y="-89.7" font-family="Times,serif" font-size="14.00">edit</text>
<text text-anchor="start" x="237.328" y="-72.9" font-family="Times,serif" font-size="14.00">new</text>
<text text-anchor="start" x="237.328" y="-56.1" font-family="Times,serif" font-size="14.00">update</text>
<polyline fill="none" stroke="black" points="229.328,-49.3 369.77,-49.3 "/>
<polyline fill="none" stroke="black" points="229.328,-25.3 369.77,-25.3 "/>
<text text-anchor="start" x="237.328" y="-7.3" font-family="Times,serif" font-size="14.00">_layout</text>
</g>
<!-- ApplicationController&#45;&gt;PostsurveysController -->
<g id="edge4" class="edge"><title>ApplicationController&#45;&gt;PostsurveysController</title>
<path fill="none" stroke="black" d="M299.888,-243.788C299.829,-214.421 299.759,-179.774 299.699,-149.529"/>
</g>
<!-- PresurveysController -->
<g id="node5" class="node"><title>PresurveysController</title>
<polyline fill="none" stroke="black" points="42.7016,-356.999 153.681,-356.999 "/>
<path fill="none" stroke="black" d="M153.681,-356.999C159.681,-356.999 165.681,-362.999 165.681,-368.999"/>
<polyline fill="none" stroke="black" points="165.681,-368.999 165.681,-493.799 "/>
<path fill="none" stroke="black" d="M165.681,-493.799C165.681,-499.799 159.681,-505.799 153.681,-505.799"/>
<polyline fill="none" stroke="black" points="153.681,-505.799 42.7016,-505.799 "/>
<path fill="none" stroke="black" d="M42.7016,-505.799C36.7016,-505.799 30.7016,-499.799 30.7016,-493.799"/>
<polyline fill="none" stroke="black" points="30.7016,-493.799 30.7016,-368.999 "/>
<path fill="none" stroke="black" d="M30.7016,-368.999C30.7016,-362.999 36.7016,-356.999 42.7016,-356.999"/>
<text text-anchor="middle" x="98.1914" y="-487.799" font-family="Times,serif" font-size="14.00">PresurveysController</text>
<polyline fill="none" stroke="black" points="30.7016,-480.999 165.681,-480.999 "/>
<text text-anchor="start" x="38.7016" y="-462.999" font-family="Times,serif" font-size="14.00">create</text>
<text text-anchor="start" x="38.7016" y="-446.199" font-family="Times,serif" font-size="14.00">edit</text>
<text text-anchor="start" x="38.7016" y="-429.399" font-family="Times,serif" font-size="14.00">new</text>
<text text-anchor="start" x="38.7016" y="-412.599" font-family="Times,serif" font-size="14.00">update</text>
<polyline fill="none" stroke="black" points="30.7016,-405.799 165.681,-405.799 "/>
<polyline fill="none" stroke="black" points="30.7016,-381.799 165.681,-381.799 "/>
<text text-anchor="start" x="38.7016" y="-363.799" font-family="Times,serif" font-size="14.00">_layout</text>
</g>
<!-- ApplicationController&#45;&gt;PresurveysController -->
<g id="edge6" class="edge"><title>ApplicationController&#45;&gt;PresurveysController</title>
<path fill="none" stroke="black" d="M198.515,-371.204C187.423,-377.86 176.34,-384.509 165.802,-390.832"/>
</g>
<!-- ReportsController -->
<g id="node6" class="node"><title>ReportsController</title>
<polyline fill="none" stroke="black" points="458.816,-359.945 551.913,-359.945 "/>
<path fill="none" stroke="black" d="M551.913,-359.945C557.913,-359.945 563.913,-365.945 563.913,-371.945"/>
<polyline fill="none" stroke="black" points="563.913,-371.945 563.913,-479.945 "/>
<path fill="none" stroke="black" d="M563.913,-479.945C563.913,-485.945 557.913,-491.945 551.913,-491.945"/>
<polyline fill="none" stroke="black" points="551.913,-491.945 458.816,-491.945 "/>
<path fill="none" stroke="black" d="M458.816,-491.945C452.816,-491.945 446.816,-485.945 446.816,-479.945"/>
<polyline fill="none" stroke="black" points="446.816,-479.945 446.816,-371.945 "/>
<path fill="none" stroke="black" d="M446.816,-371.945C446.816,-365.945 452.816,-359.945 458.816,-359.945"/>
<text text-anchor="middle" x="505.364" y="-473.945" font-family="Times,serif" font-size="14.00">ReportsController</text>
<polyline fill="none" stroke="black" points="446.816,-467.145 563.913,-467.145 "/>
<text text-anchor="start" x="454.816" y="-449.145" font-family="Times,serif" font-size="14.00">create</text>
<text text-anchor="start" x="454.816" y="-432.345" font-family="Times,serif" font-size="14.00">generate</text>
<text text-anchor="start" x="454.816" y="-415.545" font-family="Times,serif" font-size="14.00">new</text>
<polyline fill="none" stroke="black" points="446.816,-408.745 563.913,-408.745 "/>
<polyline fill="none" stroke="black" points="446.816,-384.745 563.913,-384.745 "/>
<text text-anchor="start" x="454.816" y="-366.745" font-family="Times,serif" font-size="14.00">_layout</text>
</g>
<!-- ApplicationController&#45;&gt;ReportsController -->
<g id="edge8" class="edge"><title>ApplicationController&#45;&gt;ReportsController</title>
<path fill="none" stroke="black" d="M401.49,-367.445C416.949,-376.151 432.445,-384.878 446.575,-392.836"/>
</g>
<!-- SchoolsController -->
<g id="node7" class="node"><title>SchoolsController</title>
<polyline fill="none" stroke="black" points="257.179,-497.016 351.062,-497.016 "/>
<path fill="none" stroke="black" d="M351.062,-497.016C357.062,-497.016 363.062,-503.016 363.062,-509.016"/>
<polyline fill="none" stroke="black" points="363.062,-509.016 363.062,-582.616 "/>
<path fill="none" stroke="black" d="M363.062,-582.616C363.062,-588.616 357.062,-594.616 351.062,-594.616"/>
<polyline fill="none" stroke="black" points="351.062,-594.616 257.179,-594.616 "/>
<path fill="none" stroke="black" d="M257.179,-594.616C251.179,-594.616 245.179,-588.616 245.179,-582.616"/>
<polyline fill="none" stroke="black" points="245.179,-582.616 245.179,-509.016 "/>
<path fill="none" stroke="black" d="M245.179,-509.016C245.179,-503.016 251.179,-497.016 257.179,-497.016"/>
<text text-anchor="middle" x="304.121" y="-576.616" font-family="Times,serif" font-size="14.00">SchoolsController</text>
<polyline fill="none" stroke="black" points="245.179,-569.816 363.062,-569.816 "/>
<polyline fill="none" stroke="black" points="245.179,-545.816 363.062,-545.816 "/>
<polyline fill="none" stroke="black" points="245.179,-521.816 363.062,-521.816 "/>
<text text-anchor="start" x="253.179" y="-503.816" font-family="Times,serif" font-size="14.00">_layout</text>
</g>
<!-- ApplicationController&#45;&gt;SchoolsController -->
<g id="edge10" class="edge"><title>ApplicationController&#45;&gt;SchoolsController</title>
<path fill="none" stroke="black" d="M301.18,-376.845C301.845,-415.068 302.666,-462.231 303.271,-497.008"/>
</g>
<!-- SessionsController -->
<g id="node8" class="node"><title>SessionsController</title>
<polyline fill="none" stroke="black" points="11.7654,-128.424 178.704,-128.424 "/>
<path fill="none" stroke="black" d="M178.704,-128.424C184.704,-128.424 190.704,-134.424 190.704,-140.424"/>
<polyline fill="none" stroke="black" points="190.704,-140.424 190.704,-248.424 "/>
<path fill="none" stroke="black" d="M190.704,-248.424C190.704,-254.424 184.704,-260.424 178.704,-260.424"/>
<polyline fill="none" stroke="black" points="178.704,-260.424 11.7654,-260.424 "/>
<path fill="none" stroke="black" d="M11.7654,-260.424C5.76538,-260.424 -0.234619,-254.424 -0.234619,-248.424"/>
<polyline fill="none" stroke="black" points="-0.234619,-248.424 -0.234619,-140.424 "/>
<path fill="none" stroke="black" d="M-0.234619,-140.424C-0.234619,-134.424 5.76538,-128.424 11.7654,-128.424"/>
<text text-anchor="middle" x="95.2346" y="-242.424" font-family="Times,serif" font-size="14.00">SessionsController</text>
<polyline fill="none" stroke="black" points="-0.234619,-235.624 190.704,-235.624 "/>
<text text-anchor="start" x="7.76538" y="-217.624" font-family="Times,serif" font-size="14.00">create</text>
<text text-anchor="start" x="7.76538" y="-200.824" font-family="Times,serif" font-size="14.00">destroy</text>
<polyline fill="none" stroke="black" points="-0.234619,-194.024 190.704,-194.024 "/>
<polyline fill="none" stroke="black" points="-0.234619,-170.024 190.704,-170.024 "/>
<text text-anchor="start" x="7.76538" y="-152.024" font-family="Times,serif" font-size="14.00">_layout</text>
<text text-anchor="start" x="7.76538" y="-135.224" font-family="Times,serif" font-size="14.00">_run_process_action_callbacks</text>
</g>
<!-- ApplicationController&#45;&gt;SessionsController -->
<g id="edge12" class="edge"><title>ApplicationController&#45;&gt;SessionsController</title>
<path fill="none" stroke="black" d="M198.528,-252.871C196.013,-251.448 193.498,-250.025 190.989,-248.605"/>
</g>
</g>
</svg>
