<?xml version="1.0" encoding="UTF-8" standalone="no"?>
<!DOCTYPE svg PUBLIC "-//W3C//DTD SVG 1.1//EN"
 "http://www.w3.org/Graphics/SVG/1.1/DTD/svg11.dtd">
<!-- Generated by graphviz version 2.28.0 (20121014.0429)
 -->
<!-- Title: models_diagram Pages: 1 -->
<svg width="714pt" height="434pt"
 viewBox="0.00 0.00 714.00 434.00" xmlns="http://www.w3.org/2000/svg" xmlns:xlink="http://www.w3.org/1999/xlink">
<g id="graph1" class="graph" transform="scale(1 1) rotate(0) translate(4 430)">
<title>models_diagram</title>
<polygon fill="white" stroke="white" points="-4,5 -4,-430 711,-430 711,5 -4,5"/>
<!-- _diagram_info -->
<g id="node1" class="node"><title>_diagram_info</title>
<text text-anchor="start" x="7.31226" y="-275" font-family="Times,serif" font-size="13.00">Models diagram</text>
<text text-anchor="start" x="7.31226" y="-259.4" font-family="Times,serif" font-size="13.00">Date: Oct 14 2012 &#45; 03:44</text>
<text text-anchor="start" x="7.31226" y="-243.8" font-family="Times,serif" font-size="13.00">Migration version: 20121014040558</text>
<text text-anchor="start" x="7.31226" y="-228.2" font-family="Times,serif" font-size="13.00">Generated by RailRoady 1.1.0</text>
<text text-anchor="start" x="7.31226" y="-212.6" font-family="Times,serif" font-size="13.00">http://railroady.prestonlee.com</text>
</g>
<!-- Postsurveys -->
<g id="node2" class="node"><title>Postsurveys</title>
<polyline fill="none" stroke="black" points="236.495,-73 345.505,-73 "/>
<path fill="none" stroke="black" d="M345.505,-73C351.505,-73 357.505,-79 357.505,-85"/>
<polyline fill="none" stroke="black" points="357.505,-85 357.505,-413 "/>
<path fill="none" stroke="black" d="M357.505,-413C357.505,-419 351.505,-425 345.505,-425"/>
<polyline fill="none" stroke="black" points="345.505,-425 236.495,-425 "/>
<path fill="none" stroke="black" d="M236.495,-425C230.495,-425 224.495,-419 224.495,-413"/>
<polyline fill="none" stroke="black" points="224.495,-413 224.495,-85 "/>
<path fill="none" stroke="black" d="M224.495,-85C224.495,-79 230.495,-73 236.495,-73"/>
<text text-anchor="middle" x="291" y="-407" font-family="Times,serif" font-size="14.00">Postsurveys</text>
<polyline fill="none" stroke="black" points="224.495,-400.2 357.505,-400.2 "/>
<text text-anchor="start" x="232.495" y="-382.2" font-family="Times,serif" font-size="14.00">id :integer</text>
<text text-anchor="start" x="232.495" y="-365.4" font-family="Times,serif" font-size="14.00">s1 :integer</text>
<text text-anchor="start" x="232.495" y="-348.6" font-family="Times,serif" font-size="14.00">s2 :integer</text>
<text text-anchor="start" x="232.495" y="-331.8" font-family="Times,serif" font-size="14.00">s3 :integer</text>
<text text-anchor="start" x="232.495" y="-315" font-family="Times,serif" font-size="14.00">s4 :integer</text>
<text text-anchor="start" x="232.495" y="-298.2" font-family="Times,serif" font-size="14.00">s5 :integer</text>
<text text-anchor="start" x="232.495" y="-281.4" font-family="Times,serif" font-size="14.00">s6 :integer</text>
<text text-anchor="start" x="232.495" y="-264.6" font-family="Times,serif" font-size="14.00">e1 :integer</text>
<text text-anchor="start" x="232.495" y="-247.8" font-family="Times,serif" font-size="14.00">e2 :integer</text>
<text text-anchor="start" x="232.495" y="-231" font-family="Times,serif" font-size="14.00">e3 :integer</text>
<text text-anchor="start" x="232.495" y="-214.2" font-family="Times,serif" font-size="14.00">e4 :integer</text>
<text text-anchor="start" x="232.495" y="-197.4" font-family="Times,serif" font-size="14.00">e5 :integer</text>
<text text-anchor="start" x="232.495" y="-180.6" font-family="Times,serif" font-size="14.00">e6 :integer</text>
<text text-anchor="start" x="232.495" y="-163.8" font-family="Times,serif" font-size="14.00">e7 :integer</text>
<text text-anchor="start" x="232.495" y="-147" font-family="Times,serif" font-size="14.00">e8 :integer</text>
<text text-anchor="start" x="232.495" y="-130.2" font-family="Times,serif" font-size="14.00">e9 :integer</text>
<text text-anchor="start" x="232.495" y="-113.4" font-family="Times,serif" font-size="14.00">e10 :integer</text>
<text text-anchor="start" x="232.495" y="-96.6" font-family="Times,serif" font-size="14.00">created_at :datetime</text>
<text text-anchor="start" x="232.495" y="-79.8" font-family="Times,serif" font-size="14.00">updated_at :datetime</text>
</g>
<!-- Presurveys -->
<g id="node3" class="node"><title>Presurveys</title>
<polyline fill="none" stroke="black" points="387.495,-73 496.505,-73 "/>
<path fill="none" stroke="black" d="M496.505,-73C502.505,-73 508.505,-79 508.505,-85"/>
<polyline fill="none" stroke="black" points="508.505,-85 508.505,-413 "/>
<path fill="none" stroke="black" d="M508.505,-413C508.505,-419 502.505,-425 496.505,-425"/>
<polyline fill="none" stroke="black" points="496.505,-425 387.495,-425 "/>
<path fill="none" stroke="black" d="M387.495,-425C381.495,-425 375.495,-419 375.495,-413"/>
<polyline fill="none" stroke="black" points="375.495,-413 375.495,-85 "/>
<path fill="none" stroke="black" d="M375.495,-85C375.495,-79 381.495,-73 387.495,-73"/>
<text text-anchor="middle" x="442" y="-407" font-family="Times,serif" font-size="14.00">Presurveys</text>
<polyline fill="none" stroke="black" points="375.495,-400.2 508.505,-400.2 "/>
<text text-anchor="start" x="383.495" y="-382.2" font-family="Times,serif" font-size="14.00">id :integer</text>
<text text-anchor="start" x="383.495" y="-365.4" font-family="Times,serif" font-size="14.00">s1 :integer</text>
<text text-anchor="start" x="383.495" y="-348.6" font-family="Times,serif" font-size="14.00">s2 :integer</text>
<text text-anchor="start" x="383.495" y="-331.8" font-family="Times,serif" font-size="14.00">s3 :integer</text>
<text text-anchor="start" x="383.495" y="-315" font-family="Times,serif" font-size="14.00">s4 :integer</text>
<text text-anchor="start" x="383.495" y="-298.2" font-family="Times,serif" font-size="14.00">s5 :integer</text>
<text text-anchor="start" x="383.495" y="-281.4" font-family="Times,serif" font-size="14.00">s6 :integer</text>
<text text-anchor="start" x="383.495" y="-264.6" font-family="Times,serif" font-size="14.00">e1 :integer</text>
<text text-anchor="start" x="383.495" y="-247.8" font-family="Times,serif" font-size="14.00">e2 :integer</text>
<text text-anchor="start" x="383.495" y="-231" font-family="Times,serif" font-size="14.00">e3 :integer</text>
<text text-anchor="start" x="383.495" y="-214.2" font-family="Times,serif" font-size="14.00">e4 :integer</text>
<text text-anchor="start" x="383.495" y="-197.4" font-family="Times,serif" font-size="14.00">e5 :integer</text>
<text text-anchor="start" x="383.495" y="-180.6" font-family="Times,serif" font-size="14.00">e6 :integer</text>
<text text-anchor="start" x="383.495" y="-163.8" font-family="Times,serif" font-size="14.00">e7 :integer</text>
<text text-anchor="start" x="383.495" y="-147" font-family="Times,serif" font-size="14.00">e8 :integer</text>
<text text-anchor="start" x="383.495" y="-130.2" font-family="Times,serif" font-size="14.00">e9 :integer</text>
<text text-anchor="start" x="383.495" y="-113.4" font-family="Times,serif" font-size="14.00">e10 :integer</text>
<text text-anchor="start" x="383.495" y="-96.6" font-family="Times,serif" font-size="14.00">created_at :datetime</text>
<text text-anchor="start" x="383.495" y="-79.8" font-family="Times,serif" font-size="14.00">updated_at :datetime</text>
</g>
<!-- Schools -->
<g id="node4" class="node"><title>Schools</title>
<polyline fill="none" stroke="black" points="538.495,-173.8 647.505,-173.8 "/>
<path fill="none" stroke="black" d="M647.505,-173.8C653.505,-173.8 659.505,-179.8 659.505,-185.8"/>
<polyline fill="none" stroke="black" points="659.505,-185.8 659.505,-312.2 "/>
<path fill="none" stroke="black" d="M659.505,-312.2C659.505,-318.2 653.505,-324.2 647.505,-324.2"/>
<polyline fill="none" stroke="black" points="647.505,-324.2 538.495,-324.2 "/>
<path fill="none" stroke="black" d="M538.495,-324.2C532.495,-324.2 526.495,-318.2 526.495,-312.2"/>
<polyline fill="none" stroke="black" points="526.495,-312.2 526.495,-185.8 "/>
<path fill="none" stroke="black" d="M526.495,-185.8C526.495,-179.8 532.495,-173.8 538.495,-173.8"/>
<text text-anchor="middle" x="593" y="-306.2" font-family="Times,serif" font-size="14.00">Schools</text>
<polyline fill="none" stroke="black" points="526.495,-299.4 659.505,-299.4 "/>
<text text-anchor="start" x="534.495" y="-281.4" font-family="Times,serif" font-size="14.00">id :integer</text>
<text text-anchor="start" x="534.495" y="-264.6" font-family="Times,serif" font-size="14.00">name :string</text>
<text text-anchor="start" x="534.495" y="-247.8" font-family="Times,serif" font-size="14.00">state :string</text>
<text text-anchor="start" x="534.495" y="-231" font-family="Times,serif" font-size="14.00">county :string</text>
<text text-anchor="start" x="534.495" y="-214.2" font-family="Times,serif" font-size="14.00">district :string</text>
<text text-anchor="start" x="534.495" y="-197.4" font-family="Times,serif" font-size="14.00">created_at :datetime</text>
<text text-anchor="start" x="534.495" y="-180.6" font-family="Times,serif" font-size="14.00">updated_at :datetime</text>
</g>
<!-- Presurvey -->
<g id="node6" class="node"><title>Presurvey</title>
<ellipse fill="none" stroke="black" cx="532" cy="-18" rx="49.4817" ry="18"/>
<text text-anchor="middle" x="532" y="-12.4" font-family="Times,serif" font-size="14.00">Presurvey</text>
</g>
<!-- Schools&#45;&gt;Presurvey -->
<g id="edge2" class="edge"><title>Schools&#45;&gt;Presurvey</title>
<path fill="none" stroke="#5ce9ae" d="M571.114,-165.836C559.899,-123.735 546.992,-75.2798 539.169,-45.9122"/>
<ellipse fill="none" stroke="#5ce9ae" cx="572.165" cy="-169.785" rx="4.00001" ry="4.00001"/>
<polygon fill="#5ce9ae" stroke="#5ce9ae" points="539.103,-45.6663 540.878,-34.8449 537.816,-40.8348 536.529,-36.0033 536.529,-36.0033 536.529,-36.0033 537.816,-40.8348 532.181,-37.1616 539.103,-45.6663 539.103,-45.6663"/>
</g>
<!-- Postsurvey -->
<g id="node8" class="node"><title>Postsurvey</title>
<ellipse fill="none" stroke="black" cx="653" cy="-18" rx="53.134" ry="18"/>
<text text-anchor="middle" x="653" y="-12.4" font-family="Times,serif" font-size="14.00">Postsurvey</text>
</g>
<!-- Schools&#45;&gt;Postsurvey -->
<g id="edge4" class="edge"><title>Schools&#45;&gt;Postsurvey</title>
<path fill="none" stroke="#6591b3" d="M614.528,-165.836C625.559,-123.735 638.254,-75.2798 645.949,-45.9122"/>
<ellipse fill="none" stroke="#6591b3" cx="613.494" cy="-169.781" rx="4.00001" ry="4.00001"/>
<polygon fill="#6591b3" stroke="#6591b3" points="646.01,-45.6767 652.898,-37.1438 647.278,-40.84 648.545,-36.0033 648.545,-36.0033 648.545,-36.0033 647.278,-40.84 644.192,-34.8627 646.01,-45.6767 646.01,-45.6767"/>
</g>
</g>
</svg>
