<?xml version="1.0" encoding="UTF-8" standalone="no"?>
<!DOCTYPE svg PUBLIC "-//W3C//DTD SVG 1.1//EN"
 "http://www.w3.org/Graphics/SVG/1.1/DTD/svg11.dtd">
<!-- Generated by graphviz version 2.28.0 (20121014.0429)
 -->
<!-- Title: models_diagram Pages: 1 -->
<svg width="449pt" height="310pt"
 viewBox="0.00 0.00 449.00 310.00" xmlns="http://www.w3.org/2000/svg" xmlns:xlink="http://www.w3.org/1999/xlink">
<g id="graph1" class="graph" transform="scale(1 1) rotate(0) translate(4 306)">
<title>models_diagram</title>
<polygon fill="white" stroke="white" points="-4,5 -4,-306 446,-306 446,5 -4,5"/>
<!-- _diagram_info -->
<g id="node1" class="node"><title>_diagram_info</title>
<text text-anchor="start" x="7.31226" y="-285" font-family="Times,serif" font-size="13.00">Models diagram</text>
<text text-anchor="start" x="7.31226" y="-269.4" font-family="Times,serif" font-size="13.00">Date: Oct 27 2012 &#45; 14:58</text>
<text text-anchor="start" x="7.31226" y="-253.8" font-family="Times,serif" font-size="13.00">Migration version: 20121021223404</text>
<text text-anchor="start" x="7.31226" y="-238.2" font-family="Times,serif" font-size="13.00">Generated by RailRoady 1.1.0</text>
<text text-anchor="start" x="7.31226" y="-222.6" font-family="Times,serif" font-size="13.00">http://railroady.prestonlee.com</text>
</g>
<!-- Postsurvey -->
<g id="node2" class="node"><title>Postsurvey</title>
<ellipse fill="none" stroke="black" cx="180" cy="-18" rx="53.134" ry="18"/>
<text text-anchor="middle" x="180" y="-12.4" font-family="Times,serif" font-size="14.00">Postsurvey</text>
</g>
<!-- Presurvey -->
<g id="node3" class="node"><title>Presurvey</title>
<ellipse fill="none" stroke="black" cx="301" cy="-18" rx="49.4817" ry="18"/>
<text text-anchor="middle" x="301" y="-12.4" font-family="Times,serif" font-size="14.00">Presurvey</text>
</g>
<!-- Report -->
<g id="node4" class="node"><title>Report</title>
<ellipse fill="none" stroke="black" cx="404" cy="-162" rx="36.9811" ry="18"/>
<text text-anchor="middle" x="404" y="-156.4" font-family="Times,serif" font-size="14.00">Report</text>
</g>
<!-- School -->
<g id="node5" class="node"><title>School</title>
<ellipse fill="none" stroke="black" cx="263" cy="-259" rx="37.2949" ry="18"/>
<text text-anchor="middle" x="263" y="-253.4" font-family="Times,serif" font-size="14.00">School</text>
</g>
<!-- School&#45;&gt;Postsurvey -->
<g id="edge4" class="edge"><title>School&#45;&gt;Postsurvey</title>
<path fill="none" stroke="#5db24b" d="M239.375,-237.614C201.622,-204.421 130.642,-139.267 118,-108 112.003,-93.1666 111.305,-86.5318 118,-72 123.903,-59.189 134.598,-48.3233 145.464,-39.8288"/>
<ellipse fill="none" stroke="#5db24b" cx="242.566" cy="-240.406" rx="4.00002" ry="4.00002"/>
<polygon fill="#5db24b" stroke="#5db24b" points="145.649,-39.6938 156.38,-37.4383 149.689,-36.748 153.729,-33.8022 153.729,-33.8022 153.729,-33.8022 149.689,-36.748 151.078,-30.1661 145.649,-39.6938 145.649,-39.6938"/>
</g>
<!-- School&#45;&gt;Presurvey -->
<g id="edge2" class="edge"><title>School&#45;&gt;Presurvey</title>
<path fill="none" stroke="#1516e2" d="M277.897,-234.581C286.516,-219.612 296.52,-199.425 301,-180 311.61,-133.996 308.219,-78.611 304.684,-46.2505"/>
<ellipse fill="none" stroke="#1516e2" cx="275.846" cy="-238.043" rx="4.00002" ry="4.00002"/>
<polygon fill="#1516e2" stroke="#1516e2" points="304.671,-46.1368 307.969,-35.6786 304.085,-41.1712 303.5,-36.2056 303.5,-36.2056 303.5,-36.2056 304.085,-41.1712 299.031,-36.7326 304.671,-46.1368 304.671,-46.1368"/>
</g>
<!-- School&#45;&gt;Report -->
<g id="edge6" class="edge"><title>School&#45;&gt;Report</title>
<path fill="none" stroke="#7f91c7" d="M290.734,-239.314C314.904,-223.029 349.854,-199.482 374.524,-182.859"/>
<ellipse fill="none" stroke="#7f91c7" cx="287.122" cy="-241.747" rx="4.00002" ry="4.00002"/>
<polygon fill="#7f91c7" stroke="#7f91c7" points="374.816,-182.663 385.624,-180.807 378.963,-179.869 383.11,-177.075 383.11,-177.075 383.11,-177.075 378.963,-179.869 380.595,-173.343 374.816,-182.663 374.816,-182.663"/>
</g>
<!-- SchoolInfo -->
<g id="node6" class="node"><title>SchoolInfo</title>
<ellipse fill="none" stroke="black" cx="181" cy="-90" rx="53.4262" ry="18"/>
<text text-anchor="middle" x="181" y="-84.4" font-family="Times,serif" font-size="14.00">SchoolInfo</text>
</g>
<!-- School&#45;&gt;SchoolInfo -->
<g id="edge8" class="edge"><title>School&#45;&gt;SchoolInfo</title>
<path fill="none" stroke="#920f3a" d="M251.279,-234.13C236.079,-203.172 209.651,-149.35 193.896,-117.264"/>
<ellipse fill="none" stroke="#920f3a" cx="253.075" cy="-237.786" rx="4.00002" ry="4.00002"/>
<polygon fill="#920f3a" stroke="#920f3a" points="193.781,-117.029 193.413,-106.07 191.577,-112.541 189.373,-108.053 189.373,-108.053 189.373,-108.053 191.577,-112.541 185.334,-110.037 193.781,-117.029 193.781,-117.029"/>
</g>
<!-- User -->
<g id="node7" class="node"><title>User</title>
<ellipse fill="none" stroke="black" cx="263" cy="-162" rx="28.9087" ry="18"/>
<text text-anchor="middle" x="263" y="-156.4" font-family="Times,serif" font-size="14.00">User</text>
</g>
<!-- School&#45;&gt;User -->
<g id="edge10" class="edge"><title>School&#45;&gt;User</title>
<path fill="none" stroke="#60752f" d="M263,-232.414C263,-219.518 263,-203.862 263,-190.685"/>
<ellipse fill="none" stroke="#60752f" cx="263" cy="-236.576" rx="4" ry="4"/>
<polygon fill="#60752f" stroke="#60752f" points="263,-190.314 267.5,-180.314 263,-185.314 263,-180.314 263,-180.314 263,-180.314 263,-185.314 258.5,-180.314 263,-190.314 263,-190.314"/>
</g>
<!-- SchoolInfo&#45;&gt;Postsurvey -->
<g id="edge14" class="edge"><title>SchoolInfo&#45;&gt;Postsurvey</title>
<path fill="none" stroke="#27b828" d="M180.638,-63.6398C180.558,-58.0629 180.473,-52.1319 180.393,-46.4761"/>
<ellipse fill="none" stroke="#27b828" cx="180.696" cy="-67.697" rx="4" ry="4"/>
<polygon fill="#27b828" stroke="#27b828" points="180.387,-46.1033 184.744,-36.04 180.316,-41.1038 180.244,-36.1043 180.244,-36.1043 180.244,-36.1043 180.316,-41.1038 175.745,-36.1687 180.387,-46.1033 180.387,-46.1033"/>
</g>
<!-- SchoolInfo&#45;&gt;Presurvey -->
<g id="edge12" class="edge"><title>SchoolInfo&#45;&gt;Presurvey</title>
<path fill="none" stroke="#8bd10e" d="M213.448,-70.0722C230.048,-60.3884 250.244,-48.6078 267.053,-38.8023"/>
<ellipse fill="none" stroke="#8bd10e" cx="209.904" cy="-72.1393" rx="4.00002" ry="4.00002"/>
<polygon fill="#8bd10e" stroke="#8bd10e" points="267.361,-38.6225 278.267,-37.4708 271.68,-36.1031 275.999,-33.5838 275.999,-33.5838 275.999,-33.5838 271.68,-36.1031 273.732,-29.6968 267.361,-38.6225 267.361,-38.6225"/>
</g>
<!-- User&#45;&gt;Postsurvey -->
<g id="edge18" class="edge"><title>User&#45;&gt;Postsurvey</title>
<path fill="none" stroke="#0d6835" d="M261.63,-135.631C259.632,-116.885 254.771,-91.3629 243,-72 235.486,-59.6396 224.067,-48.7691 213.005,-40.1421"/>
<ellipse fill="none" stroke="#0d6835" cx="262.001" cy="-139.738" rx="4" ry="4"/>
<polygon fill="#0d6835" stroke="#0d6835" points="212.729,-39.9378 207.36,-30.3757 208.707,-36.9663 204.686,-33.9948 204.686,-33.9948 204.686,-33.9948 208.707,-36.9663 202.012,-37.6139 212.729,-39.9378 212.729,-39.9378"/>
</g>
<!-- User&#45;&gt;Presurvey -->
<g id="edge16" class="edge"><title>User&#45;&gt;Presurvey</title>
<path fill="none" stroke="#fe29d9" d="M269.628,-136.233C276.36,-111.076 286.759,-72.218 293.717,-46.2145"/>
<ellipse fill="none" stroke="#fe29d9" cx="268.542" cy="-140.289" rx="4.00001" ry="4.00001"/>
<polygon fill="#fe29d9" stroke="#fe29d9" points="293.794,-45.9279 300.726,-37.4311 295.086,-41.0979 296.379,-36.2678 296.379,-36.2678 296.379,-36.2678 295.086,-41.0979 292.032,-35.1045 293.794,-45.9279 293.794,-45.9279"/>
</g>
<!-- User&#45;&gt;SchoolInfo -->
<g id="edge20" class="edge"><title>User&#45;&gt;SchoolInfo</title>
<path fill="none" stroke="#1c9a8b" d="M238.666,-140.227C228.874,-131.868 217.554,-122.205 207.55,-113.665"/>
<polygon fill="#1c9a8b" stroke="#1c9a8b" points="238.8,-140.342 243.484,-150.257 242.603,-143.588 246.406,-146.834 246.406,-146.834 246.406,-146.834 242.603,-143.588 249.328,-143.412 238.8,-140.342 238.8,-140.342"/>
<polygon fill="#1c9a8b" stroke="#1c9a8b" points="207.47,-113.596 202.786,-103.681 203.667,-110.35 199.864,-107.103 199.864,-107.103 199.864,-107.103 203.667,-110.35 196.942,-110.526 207.47,-113.596 207.47,-113.596"/>
</g>
</g>
</svg>
