<?xml version="1.0" encoding="UTF-8" standalone="no"?>
<!DOCTYPE svg PUBLIC "-//W3C//DTD SVG 1.1//EN"
 "http://www.w3.org/Graphics/SVG/1.1/DTD/svg11.dtd">
<!-- Generated by graphviz version 2.28.0 (20121014.0429)
 -->
<!-- Title: models_diagram Pages: 1 -->
<svg width="562pt" height="960pt"
 viewBox="0.00 0.00 562.00 960.00" xmlns="http://www.w3.org/2000/svg" xmlns:xlink="http://www.w3.org/1999/xlink">
<g id="graph1" class="graph" transform="scale(1 1) rotate(0) translate(4 956)">
<title>models_diagram</title>
<polygon fill="white" stroke="white" points="-4,5 -4,-956 559,-956 559,5 -4,5"/>
<!-- _diagram_info -->
<g id="node1" class="node"><title>_diagram_info</title>
<text text-anchor="start" x="7.31226" y="-910" font-family="Times,serif" font-size="13.00">Models diagram</text>
<text text-anchor="start" x="7.31226" y="-894.4" font-family="Times,serif" font-size="13.00">Date: Oct 27 2012 &#45; 14:58</text>
<text text-anchor="start" x="7.31226" y="-878.8" font-family="Times,serif" font-size="13.00">Migration version: 20121021223404</text>
<text text-anchor="start" x="7.31226" y="-863.2" font-family="Times,serif" font-size="13.00">Generated by RailRoady 1.1.0</text>
<text text-anchor="start" x="7.31226" y="-847.6" font-family="Times,serif" font-size="13.00">http://railroady.prestonlee.com</text>
</g>
<!-- Postsurvey -->
<g id="node2" class="node"><title>Postsurvey</title>
<polyline fill="none" stroke="black" points="135.874,-1.2 258.126,-1.2 "/>
<path fill="none" stroke="black" d="M258.126,-1.2C264.126,-1.2 270.126,-7.2 270.126,-13.2"/>
<polyline fill="none" stroke="black" points="270.126,-13.2 270.126,-374.8 "/>
<path fill="none" stroke="black" d="M270.126,-374.8C270.126,-380.8 264.126,-386.8 258.126,-386.8"/>
<polyline fill="none" stroke="black" points="258.126,-386.8 135.874,-386.8 "/>
<path fill="none" stroke="black" d="M135.874,-386.8C129.874,-386.8 123.874,-380.8 123.874,-374.8"/>
<polyline fill="none" stroke="black" points="123.874,-374.8 123.874,-13.2 "/>
<path fill="none" stroke="black" d="M123.874,-13.2C123.874,-7.2 129.874,-1.2 135.874,-1.2"/>
<text text-anchor="middle" x="197" y="-368.8" font-family="Times,serif" font-size="14.00">Postsurvey</text>
<polyline fill="none" stroke="black" points="123.874,-362 270.126,-362 "/>
<text text-anchor="start" x="131.874" y="-344" font-family="Times,serif" font-size="14.00">id :integer</text>
<text text-anchor="start" x="131.874" y="-327.2" font-family="Times,serif" font-size="14.00">school_info_id :integer</text>
<text text-anchor="start" x="131.874" y="-310.4" font-family="Times,serif" font-size="14.00">user_id :integer</text>
<text text-anchor="start" x="131.874" y="-293.6" font-family="Times,serif" font-size="14.00">section_1 :integer</text>
<text text-anchor="start" x="131.874" y="-276.8" font-family="Times,serif" font-size="14.00">section_2 :integer</text>
<text text-anchor="start" x="131.874" y="-260" font-family="Times,serif" font-size="14.00">section_3 :integer</text>
<text text-anchor="start" x="131.874" y="-243.2" font-family="Times,serif" font-size="14.00">section_4 :integer</text>
<text text-anchor="start" x="131.874" y="-226.4" font-family="Times,serif" font-size="14.00">section_5 :integer</text>
<text text-anchor="start" x="131.874" y="-209.6" font-family="Times,serif" font-size="14.00">section_6 :integer</text>
<text text-anchor="start" x="131.874" y="-192.8" font-family="Times,serif" font-size="14.00">efficacy_1 :integer</text>
<text text-anchor="start" x="131.874" y="-176" font-family="Times,serif" font-size="14.00">efficacy_2 :integer</text>
<text text-anchor="start" x="131.874" y="-159.2" font-family="Times,serif" font-size="14.00">efficacy_3 :integer</text>
<text text-anchor="start" x="131.874" y="-142.4" font-family="Times,serif" font-size="14.00">efficacy_4 :integer</text>
<text text-anchor="start" x="131.874" y="-125.6" font-family="Times,serif" font-size="14.00">efficacy_5 :integer</text>
<text text-anchor="start" x="131.874" y="-108.8" font-family="Times,serif" font-size="14.00">efficacy_6 :integer</text>
<text text-anchor="start" x="131.874" y="-92" font-family="Times,serif" font-size="14.00">efficacy_7 :integer</text>
<text text-anchor="start" x="131.874" y="-75.2" font-family="Times,serif" font-size="14.00">efficacy_8 :integer</text>
<text text-anchor="start" x="131.874" y="-58.4" font-family="Times,serif" font-size="14.00">efficacy_9 :integer</text>
<text text-anchor="start" x="131.874" y="-41.6" font-family="Times,serif" font-size="14.00">efficacy_10 :integer</text>
<text text-anchor="start" x="131.874" y="-24.8" font-family="Times,serif" font-size="14.00">created_at :datetime</text>
<text text-anchor="start" x="131.874" y="-8" font-family="Times,serif" font-size="14.00">updated_at :datetime</text>
</g>
<!-- Presurvey -->
<g id="node3" class="node"><title>Presurvey</title>
<polyline fill="none" stroke="black" points="299.874,-1.2 422.126,-1.2 "/>
<path fill="none" stroke="black" d="M422.126,-1.2C428.126,-1.2 434.126,-7.2 434.126,-13.2"/>
<polyline fill="none" stroke="black" points="434.126,-13.2 434.126,-374.8 "/>
<path fill="none" stroke="black" d="M434.126,-374.8C434.126,-380.8 428.126,-386.8 422.126,-386.8"/>
<polyline fill="none" stroke="black" points="422.126,-386.8 299.874,-386.8 "/>
<path fill="none" stroke="black" d="M299.874,-386.8C293.874,-386.8 287.874,-380.8 287.874,-374.8"/>
<polyline fill="none" stroke="black" points="287.874,-374.8 287.874,-13.2 "/>
<path fill="none" stroke="black" d="M287.874,-13.2C287.874,-7.2 293.874,-1.2 299.874,-1.2"/>
<text text-anchor="middle" x="361" y="-368.8" font-family="Times,serif" font-size="14.00">Presurvey</text>
<polyline fill="none" stroke="black" points="287.874,-362 434.126,-362 "/>
<text text-anchor="start" x="295.874" y="-344" font-family="Times,serif" font-size="14.00">id :integer</text>
<text text-anchor="start" x="295.874" y="-327.2" font-family="Times,serif" font-size="14.00">school_info_id :integer</text>
<text text-anchor="start" x="295.874" y="-310.4" font-family="Times,serif" font-size="14.00">user_id :integer</text>
<text text-anchor="start" x="295.874" y="-293.6" font-family="Times,serif" font-size="14.00">section_1 :integer</text>
<text text-anchor="start" x="295.874" y="-276.8" font-family="Times,serif" font-size="14.00">section_2 :integer</text>
<text text-anchor="start" x="295.874" y="-260" font-family="Times,serif" font-size="14.00">section_3 :integer</text>
<text text-anchor="start" x="295.874" y="-243.2" font-family="Times,serif" font-size="14.00">section_4 :integer</text>
<text text-anchor="start" x="295.874" y="-226.4" font-family="Times,serif" font-size="14.00">section_5 :integer</text>
<text text-anchor="start" x="295.874" y="-209.6" font-family="Times,serif" font-size="14.00">section_6 :integer</text>
<text text-anchor="start" x="295.874" y="-192.8" font-family="Times,serif" font-size="14.00">efficacy_1 :integer</text>
<text text-anchor="start" x="295.874" y="-176" font-family="Times,serif" font-size="14.00">efficacy_2 :integer</text>
<text text-anchor="start" x="295.874" y="-159.2" font-family="Times,serif" font-size="14.00">efficacy_3 :integer</text>
<text text-anchor="start" x="295.874" y="-142.4" font-family="Times,serif" font-size="14.00">efficacy_4 :integer</text>
<text text-anchor="start" x="295.874" y="-125.6" font-family="Times,serif" font-size="14.00">efficacy_5 :integer</text>
<text text-anchor="start" x="295.874" y="-108.8" font-family="Times,serif" font-size="14.00">efficacy_6 :integer</text>
<text text-anchor="start" x="295.874" y="-92" font-family="Times,serif" font-size="14.00">efficacy_7 :integer</text>
<text text-anchor="start" x="295.874" y="-75.2" font-family="Times,serif" font-size="14.00">efficacy_8 :integer</text>
<text text-anchor="start" x="295.874" y="-58.4" font-family="Times,serif" font-size="14.00">efficacy_9 :integer</text>
<text text-anchor="start" x="295.874" y="-41.6" font-family="Times,serif" font-size="14.00">efficacy_10 :integer</text>
<text text-anchor="start" x="295.874" y="-24.8" font-family="Times,serif" font-size="14.00">created_at :datetime</text>
<text text-anchor="start" x="295.874" y="-8" font-family="Times,serif" font-size="14.00">updated_at :datetime</text>
</g>
<!-- Report -->
<g id="node4" class="node"><title>Report</title>
<polyline fill="none" stroke="black" points="433.495,-637.6 542.505,-637.6 "/>
<path fill="none" stroke="black" d="M542.505,-637.6C548.505,-637.6 554.505,-643.6 554.505,-649.6"/>
<polyline fill="none" stroke="black" points="554.505,-649.6 554.505,-742.4 "/>
<path fill="none" stroke="black" d="M554.505,-742.4C554.505,-748.4 548.505,-754.4 542.505,-754.4"/>
<polyline fill="none" stroke="black" points="542.505,-754.4 433.495,-754.4 "/>
<path fill="none" stroke="black" d="M433.495,-754.4C427.495,-754.4 421.495,-748.4 421.495,-742.4"/>
<polyline fill="none" stroke="black" points="421.495,-742.4 421.495,-649.6 "/>
<path fill="none" stroke="black" d="M421.495,-649.6C421.495,-643.6 427.495,-637.6 433.495,-637.6"/>
<text text-anchor="middle" x="488" y="-736.4" font-family="Times,serif" font-size="14.00">Report</text>
<polyline fill="none" stroke="black" points="421.495,-729.6 554.505,-729.6 "/>
<text text-anchor="start" x="429.495" y="-711.6" font-family="Times,serif" font-size="14.00">id :integer</text>
<text text-anchor="start" x="429.495" y="-694.8" font-family="Times,serif" font-size="14.00">school_id :string</text>
<text text-anchor="start" x="429.495" y="-678" font-family="Times,serif" font-size="14.00">content :string</text>
<text text-anchor="start" x="429.495" y="-661.2" font-family="Times,serif" font-size="14.00">created_at :datetime</text>
<text text-anchor="start" x="429.495" y="-644.4" font-family="Times,serif" font-size="14.00">updated_at :datetime</text>
</g>
<!-- School -->
<g id="node5" class="node"><title>School</title>
<polyline fill="none" stroke="black" points="236.495,-817.2 345.505,-817.2 "/>
<path fill="none" stroke="black" d="M345.505,-817.2C351.505,-817.2 357.505,-823.2 357.505,-829.2"/>
<polyline fill="none" stroke="black" points="357.505,-829.2 357.505,-938.8 "/>
<path fill="none" stroke="black" d="M357.505,-938.8C357.505,-944.8 351.505,-950.8 345.505,-950.8"/>
<polyline fill="none" stroke="black" points="345.505,-950.8 236.495,-950.8 "/>
<path fill="none" stroke="black" d="M236.495,-950.8C230.495,-950.8 224.495,-944.8 224.495,-938.8"/>
<polyline fill="none" stroke="black" points="224.495,-938.8 224.495,-829.2 "/>
<path fill="none" stroke="black" d="M224.495,-829.2C224.495,-823.2 230.495,-817.2 236.495,-817.2"/>
<text text-anchor="middle" x="291" y="-932.8" font-family="Times,serif" font-size="14.00">School</text>
<polyline fill="none" stroke="black" points="224.495,-926 357.505,-926 "/>
<text text-anchor="start" x="232.495" y="-908" font-family="Times,serif" font-size="14.00">id :integer</text>
<text text-anchor="start" x="232.495" y="-891.2" font-family="Times,serif" font-size="14.00">name :string</text>
<text text-anchor="start" x="232.495" y="-874.4" font-family="Times,serif" font-size="14.00">city :string</text>
<text text-anchor="start" x="232.495" y="-857.6" font-family="Times,serif" font-size="14.00">county :string</text>
<text text-anchor="start" x="232.495" y="-840.8" font-family="Times,serif" font-size="14.00">created_at :datetime</text>
<text text-anchor="start" x="232.495" y="-824" font-family="Times,serif" font-size="14.00">updated_at :datetime</text>
</g>
<!-- School&#45;&gt;Postsurvey -->
<g id="edge4" class="edge"><title>School&#45;&gt;Postsurvey</title>
<path fill="none" stroke="#2e7d9b" d="M218.376,-817.776C203.322,-803.063 190.389,-789.117 185,-780 137.159,-699.061 141.557,-669.178 129,-576 119.978,-509.05 119.284,-490.853 129,-424 130.303,-415.033 131.879,-405.929 133.672,-396.777"/>
<ellipse fill="none" stroke="#2e7d9b" cx="221.593" cy="-820.886" rx="4.00002" ry="4.00002"/>
<polygon fill="#2e7d9b" stroke="#2e7d9b" points="133.702,-396.629 140.109,-387.729 134.701,-391.729 135.7,-386.83 135.7,-386.83 135.7,-386.83 134.701,-391.729 131.29,-385.931 133.702,-396.629 133.702,-396.629"/>
</g>
<!-- School&#45;&gt;Presurvey -->
<g id="edge2" class="edge"><title>School&#45;&gt;Presurvey</title>
<path fill="none" stroke="#9796b5" d="M358.971,-810.262C365.062,-800.632 370.311,-790.456 374,-780 417.06,-657.938 414.038,-512.469 400.137,-397.127"/>
<ellipse fill="none" stroke="#9796b5" cx="356.605" cy="-813.837" rx="4.00002" ry="4.00002"/>
<polygon fill="#9796b5" stroke="#9796b5" points="400.127,-397.044 403.361,-386.566 399.511,-392.082 398.895,-387.12 398.895,-387.12 398.895,-387.12 399.511,-392.082 394.429,-387.675 400.127,-397.044 400.127,-397.044"/>
</g>
<!-- School&#45;&gt;Report -->
<g id="edge6" class="edge"><title>School&#45;&gt;Report</title>
<path fill="none" stroke="#29e79f" d="M363.851,-819.742C378.319,-806.781 393.274,-793.094 407,-780 413.073,-774.206 419.316,-768.099 425.513,-761.933"/>
<ellipse fill="none" stroke="#29e79f" cx="360.669" cy="-822.584" rx="4.00002" ry="4.00002"/>
<polygon fill="#29e79f" stroke="#29e79f" points="425.687,-761.759 435.937,-757.863 429.22,-758.221 432.753,-754.683 432.753,-754.683 432.753,-754.683 429.22,-758.221 429.569,-751.503 425.687,-761.759 425.687,-761.759"/>
</g>
<!-- SchoolInfo -->
<g id="node6" class="node"><title>SchoolInfo</title>
<polyline fill="none" stroke="black" points="150.495,-424.8 259.505,-424.8 "/>
<path fill="none" stroke="black" d="M259.505,-424.8C265.505,-424.8 271.505,-430.8 271.505,-436.8"/>
<polyline fill="none" stroke="black" points="271.505,-436.8 271.505,-563.2 "/>
<path fill="none" stroke="black" d="M271.505,-563.2C271.505,-569.2 265.505,-575.2 259.505,-575.2"/>
<polyline fill="none" stroke="black" points="259.505,-575.2 150.495,-575.2 "/>
<path fill="none" stroke="black" d="M150.495,-575.2C144.495,-575.2 138.495,-569.2 138.495,-563.2"/>
<polyline fill="none" stroke="black" points="138.495,-563.2 138.495,-436.8 "/>
<path fill="none" stroke="black" d="M138.495,-436.8C138.495,-430.8 144.495,-424.8 150.495,-424.8"/>
<text text-anchor="middle" x="205" y="-557.2" font-family="Times,serif" font-size="14.00">SchoolInfo</text>
<polyline fill="none" stroke="black" points="138.495,-550.4 271.505,-550.4 "/>
<text text-anchor="start" x="146.495" y="-532.4" font-family="Times,serif" font-size="14.00">id :integer</text>
<text text-anchor="start" x="146.495" y="-515.6" font-family="Times,serif" font-size="14.00">school_id :integer</text>
<text text-anchor="start" x="146.495" y="-498.8" font-family="Times,serif" font-size="14.00">user_id :integer</text>
<text text-anchor="start" x="146.495" y="-482" font-family="Times,serif" font-size="14.00">year :integer</text>
<text text-anchor="start" x="146.495" y="-465.2" font-family="Times,serif" font-size="14.00">semester :string</text>
<text text-anchor="start" x="146.495" y="-448.4" font-family="Times,serif" font-size="14.00">created_at :datetime</text>
<text text-anchor="start" x="146.495" y="-431.6" font-family="Times,serif" font-size="14.00">updated_at :datetime</text>
</g>
<!-- School&#45;&gt;SchoolInfo -->
<g id="edge8" class="edge"><title>School&#45;&gt;SchoolInfo</title>
<path fill="none" stroke="#5d51b5" d="M223.14,-810.222C217.029,-800.6 211.745,-790.436 208,-780 185.583,-717.526 186.303,-642 191.815,-585.292"/>
<ellipse fill="none" stroke="#5d51b5" cx="225.512" cy="-813.797" rx="4.00002" ry="4.00002"/>
<polygon fill="#5d51b5" stroke="#5d51b5" points="191.821,-585.234 197.332,-575.753 192.339,-580.261 192.856,-575.287 192.856,-575.287 192.856,-575.287 192.339,-580.261 188.38,-574.822 191.821,-585.234 191.821,-585.234"/>
</g>
<!-- User -->
<g id="node7" class="node"><title>User</title>
<polyline fill="none" stroke="black" points="228.698,-612.4 353.302,-612.4 "/>
<path fill="none" stroke="black" d="M353.302,-612.4C359.302,-612.4 365.302,-618.4 365.302,-624.4"/>
<polyline fill="none" stroke="black" points="365.302,-624.4 365.302,-767.6 "/>
<path fill="none" stroke="black" d="M365.302,-767.6C365.302,-773.6 359.302,-779.6 353.302,-779.6"/>
<polyline fill="none" stroke="black" points="353.302,-779.6 228.698,-779.6 "/>
<path fill="none" stroke="black" d="M228.698,-779.6C222.698,-779.6 216.698,-773.6 216.698,-767.6"/>
<polyline fill="none" stroke="black" points="216.698,-767.6 216.698,-624.4 "/>
<path fill="none" stroke="black" d="M216.698,-624.4C216.698,-618.4 222.698,-612.4 228.698,-612.4"/>
<text text-anchor="middle" x="291" y="-761.6" font-family="Times,serif" font-size="14.00">User</text>
<polyline fill="none" stroke="black" points="216.698,-754.8 365.302,-754.8 "/>
<text text-anchor="start" x="224.698" y="-736.8" font-family="Times,serif" font-size="14.00">id :integer</text>
<text text-anchor="start" x="224.698" y="-720" font-family="Times,serif" font-size="14.00">school_id :integer</text>
<text text-anchor="start" x="224.698" y="-703.2" font-family="Times,serif" font-size="14.00">name :string</text>
<text text-anchor="start" x="224.698" y="-686.4" font-family="Times,serif" font-size="14.00">email :string</text>
<text text-anchor="start" x="224.698" y="-669.6" font-family="Times,serif" font-size="14.00">password_digest :string</text>
<text text-anchor="start" x="224.698" y="-652.8" font-family="Times,serif" font-size="14.00">created_at :datetime</text>
<text text-anchor="start" x="224.698" y="-636" font-family="Times,serif" font-size="14.00">updated_at :datetime</text>
<text text-anchor="start" x="224.698" y="-619.2" font-family="Times,serif" font-size="14.00">type :integer</text>
</g>
<!-- School&#45;&gt;User -->
<g id="edge10" class="edge"><title>School&#45;&gt;User</title>
<path fill="none" stroke="#ecbe93" d="M291,-809.119C291,-802.775 291,-796.307 291,-789.841"/>
<ellipse fill="none" stroke="#ecbe93" cx="291" cy="-813.162" rx="4" ry="4"/>
<polygon fill="#ecbe93" stroke="#ecbe93" points="291,-789.697 295.5,-779.697 291,-784.697 291,-779.697 291,-779.697 291,-779.697 291,-784.697 286.5,-779.697 291,-789.697 291,-789.697"/>
</g>
<!-- SchoolInfo&#45;&gt;Postsurvey -->
<g id="edge14" class="edge"><title>SchoolInfo&#45;&gt;Postsurvey</title>
<path fill="none" stroke="#c4a21c" d="M202.827,-416.441C202.664,-410.231 202.495,-403.825 202.323,-397.278"/>
<ellipse fill="none" stroke="#c4a21c" cx="202.938" cy="-420.635" rx="4" ry="4"/>
<polygon fill="#c4a21c" stroke="#c4a21c" points="202.313,-396.88 206.548,-386.765 202.181,-391.882 202.05,-386.884 202.05,-386.884 202.05,-386.884 202.181,-391.882 197.551,-387.002 202.313,-396.88 202.313,-396.88"/>
</g>
<!-- SchoolInfo&#45;&gt;Presurvey -->
<g id="edge12" class="edge"><title>SchoolInfo&#45;&gt;Presurvey</title>
<path fill="none" stroke="#7ba32a" d="M261.583,-417.83C267.734,-407.944 273.682,-397.853 279,-388 280.378,-385.447 281.749,-382.866 283.114,-380.261"/>
<ellipse fill="none" stroke="#7ba32a" cx="259.429" cy="-421.252" rx="4.00002" ry="4.00002"/>
<polygon fill="#7ba32a" stroke="#7ba32a" points="283.141,-380.207 291.722,-373.38 285.432,-375.763 287.722,-371.318 287.722,-371.318 287.722,-371.318 285.432,-375.763 283.723,-369.257 283.141,-380.207 283.141,-380.207"/>
</g>
<!-- User&#45;&gt;Postsurvey -->
<g id="edge18" class="edge"><title>User&#45;&gt;Postsurvey</title>
<path fill="none" stroke="#b1b942" d="M294.22,-604.066C294.385,-551.07 291.643,-483.218 280,-424 277.954,-413.596 275.513,-403.033 272.774,-392.442"/>
<ellipse fill="none" stroke="#b1b942" cx="294.197" cy="-608.107" rx="4" ry="4"/>
<polygon fill="#b1b942" stroke="#b1b942" points="272.755,-392.374 274.524,-381.551 271.466,-387.543 270.176,-382.712 270.176,-382.712 270.176,-382.712 271.466,-387.543 265.829,-383.872 272.755,-392.374 272.755,-392.374"/>
</g>
<!-- User&#45;&gt;Presurvey -->
<g id="edge16" class="edge"><title>User&#45;&gt;Presurvey</title>
<path fill="none" stroke="#7a9429" d="M309.204,-604.243C310.915,-594.722 312.549,-585.174 314,-576 323.151,-518.127 331.56,-455.07 338.657,-397.215"/>
<ellipse fill="none" stroke="#7a9429" cx="308.467" cy="-608.29" rx="4.00001" ry="4.00001"/>
<polygon fill="#7a9429" stroke="#7a9429" points="338.665,-397.155 344.343,-387.773 339.27,-392.191 339.876,-387.228 339.876,-387.228 339.876,-387.228 339.27,-392.191 335.409,-386.683 338.665,-397.155 338.665,-397.155"/>
</g>
<!-- User&#45;&gt;SchoolInfo -->
<g id="edge20" class="edge"><title>User&#45;&gt;SchoolInfo</title>
<path fill="none" stroke="#34bde4" d="M250.184,-602.927C247.488,-596.844 244.78,-590.735 242.103,-584.696"/>
<polygon fill="#34bde4" stroke="#34bde4" points="250.226,-603.022 250.165,-613.988 252.252,-607.593 254.279,-612.164 254.279,-612.164 254.279,-612.164 252.252,-607.593 258.393,-610.34 250.226,-603.022 250.226,-603.022"/>
<polygon fill="#34bde4" stroke="#34bde4" points="241.98,-584.42 242.041,-573.455 239.954,-579.849 237.928,-575.278 237.928,-575.278 237.928,-575.278 239.954,-579.849 233.814,-577.102 241.98,-584.42 241.98,-584.42"/>
</g>
</g>
</svg>
