<?xml version="1.0" encoding="UTF-8" standalone="no"?>
<!DOCTYPE svg PUBLIC "-//W3C//DTD SVG 1.1//EN"
 "http://www.w3.org/Graphics/SVG/1.1/DTD/svg11.dtd">
<!-- Generated by graphviz version 2.28.0 (20121014.0429)
 -->
<!-- Title: models_diagram Pages: 1 -->
<svg width="645pt" height="166pt"
 viewBox="0.00 0.00 645.00 166.00" xmlns="http://www.w3.org/2000/svg" xmlns:xlink="http://www.w3.org/1999/xlink">
<g id="graph1" class="graph" transform="scale(1 1) rotate(0) translate(4 162)">
<title>models_diagram</title>
<polygon fill="white" stroke="white" points="-4,5 -4,-162 642,-162 642,5 -4,5"/>
<!-- _diagram_info -->
<g id="node1" class="node"><title>_diagram_info</title>
<text text-anchor="start" x="7.31226" y="-141" font-family="Times,serif" font-size="13.00">Models diagram</text>
<text text-anchor="start" x="7.31226" y="-125.4" font-family="Times,serif" font-size="13.00">Date: Oct 14 2012 &#45; 03:44</text>
<text text-anchor="start" x="7.31226" y="-109.8" font-family="Times,serif" font-size="13.00">Migration version: 20121014040558</text>
<text text-anchor="start" x="7.31226" y="-94.2" font-family="Times,serif" font-size="13.00">Generated by RailRoady 1.1.0</text>
<text text-anchor="start" x="7.31226" y="-78.6" font-family="Times,serif" font-size="13.00">http://railroady.prestonlee.com</text>
</g>
<!-- Postsurveys -->
<g id="node2" class="node"><title>Postsurveys</title>
<ellipse fill="none" stroke="black" cx="282" cy="-115" rx="57.271" ry="18"/>
<text text-anchor="middle" x="282" y="-109.4" font-family="Times,serif" font-size="14.00">Postsurveys</text>
</g>
<!-- Presurveys -->
<g id="node3" class="node"><title>Presurveys</title>
<ellipse fill="none" stroke="black" cx="411" cy="-115" rx="53.1199" ry="18"/>
<text text-anchor="middle" x="411" y="-109.4" font-family="Times,serif" font-size="14.00">Presurveys</text>
</g>
<!-- Schools -->
<g id="node4" class="node"><title>Schools</title>
<ellipse fill="none" stroke="black" cx="524" cy="-115" rx="41.4294" ry="18"/>
<text text-anchor="middle" x="524" y="-109.4" font-family="Times,serif" font-size="14.00">Schools</text>
</g>
<!-- Presurvey -->
<g id="node6" class="node"><title>Presurvey</title>
<ellipse fill="none" stroke="black" cx="463" cy="-18" rx="49.4817" ry="18"/>
<text text-anchor="middle" x="463" y="-12.4" font-family="Times,serif" font-size="14.00">Presurvey</text>
</g>
<!-- Schools&#45;&gt;Presurvey -->
<g id="edge2" class="edge"><title>Schools&#45;&gt;Presurvey</title>
<path fill="none" stroke="#cb6ce4" d="M508.933,-90.5349C499.878,-76.4334 488.36,-58.4946 479.123,-44.1088"/>
<ellipse fill="none" stroke="#cb6ce4" cx="511.213" cy="-94.0864" rx="4.00002" ry="4.00002"/>
<polygon fill="#cb6ce4" stroke="#cb6ce4" points="479.111,-44.0915 477.495,-33.2454 476.41,-39.8842 473.708,-35.6769 473.708,-35.6769 473.708,-35.6769 476.41,-39.8842 469.922,-38.1083 479.111,-44.0915 479.111,-44.0915"/>
</g>
<!-- Postsurvey -->
<g id="node8" class="node"><title>Postsurvey</title>
<ellipse fill="none" stroke="black" cx="584" cy="-18" rx="53.134" ry="18"/>
<text text-anchor="middle" x="584" y="-12.4" font-family="Times,serif" font-size="14.00">Postsurvey</text>
</g>
<!-- Schools&#45;&gt;Postsurvey -->
<g id="edge4" class="edge"><title>Schools&#45;&gt;Postsurvey</title>
<path fill="none" stroke="#54f605" d="M538.82,-90.5349C547.642,-76.5665 558.842,-58.8327 567.884,-44.5169"/>
<ellipse fill="none" stroke="#54f605" cx="536.587" cy="-94.0703" rx="4.00002" ry="4.00002"/>
<polygon fill="#54f605" stroke="#54f605" points="568.127,-44.1318 577.272,-38.0798 570.797,-39.9043 573.467,-35.6769 573.467,-35.6769 573.467,-35.6769 570.797,-39.9043 569.663,-33.2739 568.127,-44.1318 568.127,-44.1318"/>
</g>
</g>
</svg>
